# Extracted vertices 1-12 from liver_veins_central.obj
# v x y z radius auxiliary0 auxiliary1
v -16.6599 7.09589 22.1552 0.395599 0 0
v -16.5513 6.99336 22.1427 0.395599 0 0
v -16.4428 6.89087 22.1303 0.395599 0 0
v -16.3344 6.78848 22.1178 0.395599 0 0
v -16.2259 6.68625 22.1053 0.395599 0 0
v -16.1176 6.58421 22.0928 0.395599 0 0
v -16.0093 6.48243 22.0802 0.395599 0 0
v -15.9012 6.38096 22.0677 0.395599 0 0
v -15.7931 6.27985 22.0551 0.395599 0 0
v -15.6851 6.17914 22.0424 0.395599 0 0
v -15.5756 6.07786 22.0295 0.392841 0 0
v -15.4646 5.97573 22.0163 0.392841 0 0
l 1 2
l 2 3
l 3 4
l 4 5
l 5 6
l 6 7
l 7 8
l 8 9
l 9 10
l 10 11
l 11 12
