<?xml version="1.0" encoding="UTF-8"?>
<VTKFile type="PolyData" version="1.0" byte_order="LittleEndian">
  <PolyData><Piece NumberOfPoints="42" NumberOfPolys="80">
    <Points><DataArray type="Float64" NumberOfComponents="3" format="ascii">
0 0.25 0 0 0.17677669529663687 0.17677669529663687 0 0 0.25 0 -0.17677669529663687 0.17677669529663687 0 -0.25 0 0 -0.17677669529663687 -0.17677669529663687 0 0 -0.25 0 0.17677669529663687 -0.17677669529663687
0.25 0.25 0 0.25 0.17677669529663687 0.17677669529663687 0.25 0 0.25 0.25 -0.17677669529663687 0.17677669529663687 0.25 -0.25 0 0.25 -0.17677669529663687 -0.17677669529663687 0.25 0 -0.25 0.25 0.17677669529663687 -0.17677669529663687
0.5 0.3 0 0.5 0.21213203435596426 0.21213203435596426 0.5 0 0.3 0.5 -0.21213203435596426 0.21213203435596426 0.5 -0.3 0 0.5 -0.21213203435596426 -0.21213203435596426 0.5 0 -0.3 0.5 0.21213203435596426 -0.21213203435596426
0.75 0.25 0 0.75 0.17677669529663687 0.17677669529663687 0.75 0 0.25 0.75 -0.17677669529663687 0.17677669529663687 0.75 -0.25 0 0.75 -0.17677669529663687 -0.17677669529663687 0.75 0 -0.25 0.75 0.17677669529663687 -0.17677669529663687
1 0.25 0 1 0.17677669529663687 0.17677669529663687 1 0 0.25 1 -0.17677669529663687 0.17677669529663687 1 -0.25 0 1 -0.17677669529663687 -0.17677669529663687 1 0 -0.25 1 0.17677669529663687 -0.17677669529663687
0 0 0 1 0 0
    </DataArray></Points>
    <Polys><DataArray type="Int32" Name="connectivity" format="ascii">
0 9 8 0 1 9 1 10 9 1 2 10 2 11 10 2 3 11 3 12 11 3 4 12 4 13 12 4 5 13 5 14 13 5 6 14 6 15 14 6 7 15 7 8 15 7 0 8
8 17 16 8 9 17 9 18 17 9 10 18 10 19 18 10 11 19 11 20 19 11 12 20 12 21 20 12 13 21 13 22 21 13 14 22 14 23 22 14 15 23 15 16 23 15 8 16
16 25 24 16 17 25 17 26 25 17 18 26 18 27 26 18 19 27 19 28 27 19 20 28 20 29 28 20 21 29 21 30 29 21 22 30 22 31 30 22 23 31 23 24 31 23 16 24
24 33 32 24 25 33 25 34 33 25 26 34 26 35 34 26 27 35 27 36 35 27 28 36 28 37 36 28 29 37 29 38 37 29 30 38 30 39 38 30 31 39 31 32 39 31 24 32
40 1 0 40 2 1 40 3 2 40 4 3 40 5 4 40 6 5 40 7 6 40 0 7
41 32 33 41 33 34 41 34 35 41 35 36 41 36 37 41 37 38 41 38 39 41 39 32
    </DataArray><DataArray type="Int32" Name="offsets" format="ascii">
3 6 9 12 15 18 21 24 27 30 33 36 39 42 45 48 51 54 57 60 63 66 69 72 75 78 81 84 87 90 93 96 99 102 105 108 111 114 117 120 123 126 129 132 135 138 141 144 147 150 153 156 159 162 165 168 171 174 177 180 183 186 189 192 195 198 201 204 207 210 213 216 219 222 225 228 231 234 237 240
    </DataArray></Polys>
    <CellData Scalars="boundary_id"><DataArray type="UInt32" Name="boundary_id" format="ascii">
0 0 0 0 0 0 0 0 0 0 0 0 0 0 0 0 0 0 0 0 0 0 0 0 0 0 0 0 0 0 0 0 0 0 0 0 0 0 0 0 0 0 0 0 0 0 0 0 0 0 0 0 0 0 0 0 0 0 0 0 0 0 0 0 1 1 1 1 1 1 1 1 2 2 2 2 2 2 2 2
    </DataArray></CellData>
  </Piece></PolyData>
</VTKFile>
